<svg xmlns="http://www.w3.org/2000/svg" width="512" height="512" viewBox="0 0 512 512">
  <defs>
    <linearGradient id="g" x1="0" y1="0" x2="1" y2="1">
      <stop offset="0" stop-color="#22c55e"/>
      <stop offset="1" stop-color="#0ea5a4"/>
    </linearGradient>
    <filter id="s" x="-20%" y="-20%" width="140%" height="140%">
      <feDropShadow dx="0" dy="12" stdDeviation="18" flood-color="#0f172a" flood-opacity="0.18"/>
    </filter>
  </defs>
  <rect width="512" height="512" rx="128" fill="#FFFDF9"/>
  <g filter="url(#s)">
    <path d="M140 204c0-44 35-80 80-80h72c44 0 80 36 80 80v10c0 44-36 80-80 80h-72c-45 0-80-36-80-80v-10z" fill="url(#g)" opacity="0.12"/>
    <path d="M164 226c0-36 29-66 66-66h52c37 0 66 30 66 66v6c0 36-29 66-66 66h-52c-37 0-66-30-66-66v-6z" fill="url(#g)" opacity="0.18"/>
    <path d="M178 360c98 36 191 14 246-42" fill="none" stroke="#0ea5a4" stroke-opacity="0.25" stroke-width="18" stroke-linecap="round"/>
    <path d="M120 318c102 22 206-6 282-76" fill="none" stroke="#22c55e" stroke-opacity="0.22" stroke-width="16" stroke-linecap="round"/>
  </g>
  <text x="256" y="265" text-anchor="middle" font-size="58" font-family="PingFang SC, serif" fill="#0f172a" opacity="0.85">茶</text>
</svg>
